# xmcd
#
# Track frame offsets: 
#        150
#        21612
#        42362
#        62870
#        78122
#        100204
#        116590
#        137623
#        158483
#        180571
#        198342
#        214098
#        239032
#        260288
#        280169
#        299768
#        325888
#
# Disc length: 4593 seconds
#
# Revision: 0
# Processed by: cddbd v1.4PL0 Copyright (c) Steve Scherf et al.
# Submitted via: ExactAudioCopy v0.90b4
#
DISCID=fd11ef11
DTITLE=Le Uyen Nhi - Ngay Do Ta Yeu Nhau
DYEAR=2003
DGENRE=Acid
TTITLE0=Dau Yeu Oi !
TTITLE1=Tinh Mai Khong Phai
TTITLE2=Ngay Do Ta Yeu Nhau
TTITLE3=Tinh Xa
TTITLE4=Vet Tinh Buon
TTITLE5=Ve Day Em Nhe
TTITLE6=Mong Cho
TTITLE7=Tinh Heo Mon
TTITLE8=Hoa Co May
TTITLE9=Anh Yeu Em
TTITLE10=Dau Tinh Da Xa
TTITLE11=Xot Xa
TTITLE12=Tinh Da Voi Di - Tinh La Giac Mo
TTITLE13=Van Nho Tinh Xua
TTITLE14=Hoai Niem
TTITLE15=Tinh Vuong Van
TTITLE16=Em Van Yeu Anh
EXTD=
EXTT0=
EXTT1=
EXTT2=
EXTT3=
EXTT4=
EXTT5=
EXTT6=
EXTT7=
EXTT8=
EXTT9=
EXTT10=
EXTT11=
EXTT12=
EXTT13=
EXTT14=
EXTT15=
EXTT16=
PLAYORDER=
